solid OpenSCAD_Model
  facet normal 0.994522 0.104529 0
    outer loop
      vertex 14.5 0 0
      vertex 14.1504 3.32659 -4
      vertex 14.1504 3.32659 0
    endloop
  endfacet
  facet normal 0.994522 0.104529 0
    outer loop
      vertex 14.1504 3.32659 -4
      vertex 14.5 0 0
      vertex 14.5 0 -4
    endloop
  endfacet
  facet normal -0.994522 0.104529 0
    outer loop
      vertex -17.5 0 -4
      vertex -17.1504 3.32659 0
      vertex -17.1504 3.32659 -4
    endloop
  endfacet
  facet normal -0.994522 0.104529 0
    outer loop
      vertex -17.1504 3.32659 0
      vertex -17.5 0 -4
      vertex -17.5 0 0
    endloop
  endfacet
  facet normal 0 1 -0
    outer loop
      vertex 0.172455 15.9123 -4
      vertex -3.17245 15.9123 0
      vertex 0.172455 15.9123 0
    endloop
  endfacet
  facet normal 0 1 0
    outer loop
      vertex -3.17245 15.9123 0
      vertex 0.172455 15.9123 -4
      vertex -3.17245 15.9123 -4
    endloop
  endfacet
  facet normal 0 -1 0
    outer loop
      vertex -3.17245 -15.9123 -4
      vertex 0.172455 -15.9123 0
      vertex -3.17245 -15.9123 0
    endloop
  endfacet
  facet normal 0 -1 -0
    outer loop
      vertex 0.172455 -15.9123 0
      vertex -3.17245 -15.9123 -4
      vertex 0.172455 -15.9123 -4
    endloop
  endfacet
  facet normal 0.587785 0.809017 -0
    outer loop
      vertex 9.20609 11.8903 -4
      vertex 6.5 13.8564 0
      vertex 9.20609 11.8903 0
    endloop
  endfacet
  facet normal 0.587785 0.809017 0
    outer loop
      vertex 6.5 13.8564 0
      vertex 9.20609 11.8903 -4
      vertex 6.5 13.8564 -4
    endloop
  endfacet
  facet normal -0.587785 0.809017 0
    outer loop
      vertex -9.5 13.8564 -4
      vertex -12.2061 11.8903 0
      vertex -9.5 13.8564 0
    endloop
  endfacet
  facet normal -0.587785 0.809017 0
    outer loop
      vertex -12.2061 11.8903 0
      vertex -9.5 13.8564 -4
      vertex -12.2061 11.8903 -4
    endloop
  endfacet
  facet normal -0.406737 0.913545 0
    outer loop
      vertex -6.44427 15.2169 -4
      vertex -9.5 13.8564 0
      vertex -6.44427 15.2169 0
    endloop
  endfacet
  facet normal -0.406737 0.913545 0
    outer loop
      vertex -9.5 13.8564 0
      vertex -6.44427 15.2169 -4
      vertex -9.5 13.8564 -4
    endloop
  endfacet
  facet normal 0.951057 -0.309017 0
    outer loop
      vertex 13.1167 -6.50779 0
      vertex 14.1504 -3.32659 -4
      vertex 14.1504 -3.32659 0
    endloop
  endfacet
  facet normal 0.951057 -0.309017 0
    outer loop
      vertex 14.1504 -3.32659 -4
      vertex 13.1167 -6.50779 0
      vertex 13.1167 -6.50779 -4
    endloop
  endfacet
  facet normal 0.866025 0.5 0
    outer loop
      vertex 13.1167 6.50779 0
      vertex 11.4443 9.40456 -4
      vertex 11.4443 9.40456 0
    endloop
  endfacet
  facet normal 0.866025 0.5 0
    outer loop
      vertex 11.4443 9.40456 -4
      vertex 13.1167 6.50779 0
      vertex 13.1167 6.50779 -4
    endloop
  endfacet
  facet normal 0.951057 0.309017 0
    outer loop
      vertex 14.1504 3.32659 0
      vertex 13.1167 6.50779 -4
      vertex 13.1167 6.50779 0
    endloop
  endfacet
  facet normal 0.951057 0.309017 0
    outer loop
      vertex 13.1167 6.50779 -4
      vertex 14.1504 3.32659 0
      vertex 14.1504 3.32659 -4
    endloop
  endfacet
  facet normal 0.743145 0.669131 0
    outer loop
      vertex 11.4443 9.40456 0
      vertex 9.20609 11.8903 -4
      vertex 9.20609 11.8903 0
    endloop
  endfacet
  facet normal 0.743145 0.669131 0
    outer loop
      vertex 9.20609 11.8903 -4
      vertex 11.4443 9.40456 0
      vertex 11.4443 9.40456 -4
    endloop
  endfacet
  facet normal 0.207912 0.978148 -0
    outer loop
      vertex 3.44427 15.2169 -4
      vertex 0.172455 15.9123 0
      vertex 3.44427 15.2169 0
    endloop
  endfacet
  facet normal 0.207912 0.978148 0
    outer loop
      vertex 0.172455 15.9123 0
      vertex 3.44427 15.2169 -4
      vertex 0.172455 15.9123 -4
    endloop
  endfacet
  facet normal 0.406736 0.913546 -0
    outer loop
      vertex 6.5 13.8564 -4
      vertex 3.44427 15.2169 0
      vertex 6.5 13.8564 0
    endloop
  endfacet
  facet normal 0.406736 0.913546 0
    outer loop
      vertex 3.44427 15.2169 0
      vertex 6.5 13.8564 -4
      vertex 3.44427 15.2169 -4
    endloop
  endfacet
  facet normal -0.866026 0.5 0
    outer loop
      vertex -16.1167 6.50779 -4
      vertex -14.4443 9.40456 0
      vertex -14.4443 9.40456 -4
    endloop
  endfacet
  facet normal -0.866026 0.5 0
    outer loop
      vertex -14.4443 9.40456 0
      vertex -16.1167 6.50779 -4
      vertex -16.1167 6.50779 0
    endloop
  endfacet
  facet normal -0.743145 0.669131 0
    outer loop
      vertex -14.4443 9.40456 -4
      vertex -12.2061 11.8903 0
      vertex -12.2061 11.8903 -4
    endloop
  endfacet
  facet normal -0.743145 0.669131 0
    outer loop
      vertex -12.2061 11.8903 0
      vertex -14.4443 9.40456 -4
      vertex -14.4443 9.40456 0
    endloop
  endfacet
  facet normal -0.951057 0.309017 0
    outer loop
      vertex -17.1504 3.32659 -4
      vertex -16.1167 6.50779 0
      vertex -16.1167 6.50779 -4
    endloop
  endfacet
  facet normal -0.951057 0.309017 0
    outer loop
      vertex -16.1167 6.50779 0
      vertex -17.1504 3.32659 -4
      vertex -17.1504 3.32659 0
    endloop
  endfacet
  facet normal 0 0 1
    outer loop
      vertex 4.5 0 0
      vertex 14.5 0 0
      vertex 14.1504 3.32659 0
    endloop
  endfacet
  facet normal 0 0 1
    outer loop
      vertex 4.36889 1.24747 0
      vertex 14.1504 3.32659 0
      vertex 13.1167 6.50779 0
    endloop
  endfacet
  facet normal 0 0 1
    outer loop
      vertex 14.5 0 0
      vertex 4.5 0 0
      vertex 14.1504 -3.32659 0
    endloop
  endfacet
  facet normal 0 0 1
    outer loop
      vertex 3.98127 2.44042 0
      vertex 13.1167 6.50779 0
      vertex 11.4443 9.40456 0
    endloop
  endfacet
  facet normal -0 0 1
    outer loop
      vertex 4.36889 -1.24747 0
      vertex 14.1504 -3.32659 0
      vertex 4.5 0 0
    endloop
  endfacet
  facet normal 0 0 1
    outer loop
      vertex 3.3541 3.52671 0
      vertex 11.4443 9.40456 0
      vertex 9.20609 11.8903 0
    endloop
  endfacet
  facet normal 0 0 1
    outer loop
      vertex 14.1504 -3.32659 0
      vertex 4.36889 -1.24747 0
      vertex 13.1167 -6.50779 0
    endloop
  endfacet
  facet normal 0 0 1
    outer loop
      vertex 2.51478 4.45887 0
      vertex 9.20609 11.8903 0
      vertex 6.5 13.8564 0
    endloop
  endfacet
  facet normal -0 0 1
    outer loop
      vertex 3.98127 -2.44042 0
      vertex 13.1167 -6.50779 0
      vertex 4.36889 -1.24747 0
    endloop
  endfacet
  facet normal 0 0 1
    outer loop
      vertex 13.1167 -6.50779 0
      vertex 3.98127 -2.44042 0
      vertex 11.4443 -9.40456 0
    endloop
  endfacet
  facet normal 0 0 1
    outer loop
      vertex 14.1504 3.32659 0
      vertex 4.36889 1.24747 0
      vertex 4.5 0 0
    endloop
  endfacet
  facet normal 0 0 1
    outer loop
      vertex 13.1167 6.50779 0
      vertex 3.98127 2.44042 0
      vertex 4.36889 1.24747 0
    endloop
  endfacet
  facet normal 0 0 1
    outer loop
      vertex 1.5 5.19615 0
      vertex 6.5 13.8564 0
      vertex 3.44427 15.2169 0
    endloop
  endfacet
  facet normal 0 0 1
    outer loop
      vertex 11.4443 9.40456 0
      vertex 3.3541 3.52671 0
      vertex 3.98127 2.44042 0
    endloop
  endfacet
  facet normal 0 0 1
    outer loop
      vertex 9.20609 11.8903 0
      vertex 2.51478 4.45887 0
      vertex 3.3541 3.52671 0
    endloop
  endfacet
  facet normal 0 0 1
    outer loop
      vertex 6.5 13.8564 0
      vertex 1.5 5.19615 0
      vertex 2.51478 4.45887 0
    endloop
  endfacet
  facet normal 0 0 1
    outer loop
      vertex 3.44427 15.2169 0
      vertex 0.354101 5.70634 0
      vertex 1.5 5.19615 0
    endloop
  endfacet
  facet normal 0 0 1
    outer loop
      vertex 0.172455 15.9123 0
      vertex 0.354101 5.70634 0
      vertex 3.44427 15.2169 0
    endloop
  endfacet
  facet normal 0 0 1
    outer loop
      vertex 0.172455 15.9123 0
      vertex -0.872829 5.96713 0
      vertex 0.354101 5.70634 0
    endloop
  endfacet
  facet normal 0 0 1
    outer loop
      vertex 0.172455 15.9123 0
      vertex -2.12717 5.96713 0
      vertex -0.872829 5.96713 0
    endloop
  endfacet
  facet normal -0 0 1
    outer loop
      vertex -3.17245 15.9123 0
      vertex -2.12717 5.96713 0
      vertex 0.172455 15.9123 0
    endloop
  endfacet
  facet normal 0 0 1
    outer loop
      vertex -3.17245 15.9123 0
      vertex -3.3541 5.70634 0
      vertex -2.12717 5.96713 0
    endloop
  endfacet
  facet normal -0 0 1
    outer loop
      vertex -6.44427 15.2169 0
      vertex -3.3541 5.70634 0
      vertex -3.17245 15.9123 0
    endloop
  endfacet
  facet normal 0 0 1
    outer loop
      vertex -3.3541 5.70634 0
      vertex -6.44427 15.2169 0
      vertex -4.5 5.19615 0
    endloop
  endfacet
  facet normal -0 0 1
    outer loop
      vertex -9.5 13.8564 0
      vertex -4.5 5.19615 0
      vertex -6.44427 15.2169 0
    endloop
  endfacet
  facet normal 0 0 1
    outer loop
      vertex -4.5 5.19615 0
      vertex -9.5 13.8564 0
      vertex -5.51478 4.45887 0
    endloop
  endfacet
  facet normal -0 0 1
    outer loop
      vertex -12.2061 11.8903 0
      vertex -5.51478 4.45887 0
      vertex -9.5 13.8564 0
    endloop
  endfacet
  facet normal 0 0 1
    outer loop
      vertex -5.51478 4.45887 0
      vertex -12.2061 11.8903 0
      vertex -6.3541 3.52671 0
    endloop
  endfacet
  facet normal -0 0 1
    outer loop
      vertex -14.4443 9.40456 0
      vertex -6.3541 3.52671 0
      vertex -12.2061 11.8903 0
    endloop
  endfacet
  facet normal 0 0 1
    outer loop
      vertex -6.3541 3.52671 0
      vertex -14.4443 9.40456 0
      vertex -6.98127 2.44042 0
    endloop
  endfacet
  facet normal -0 0 1
    outer loop
      vertex 3.3541 -3.52671 0
      vertex 11.4443 -9.40456 0
      vertex 3.98127 -2.44042 0
    endloop
  endfacet
  facet normal 0 0 1
    outer loop
      vertex 11.4443 -9.40456 0
      vertex 3.3541 -3.52671 0
      vertex 9.20609 -11.8903 0
    endloop
  endfacet
  facet normal -0 0 1
    outer loop
      vertex 2.51478 -4.45887 0
      vertex 9.20609 -11.8903 0
      vertex 3.3541 -3.52671 0
    endloop
  endfacet
  facet normal 0 0 1
    outer loop
      vertex 9.20609 -11.8903 0
      vertex 2.51478 -4.45887 0
      vertex 6.5 -13.8564 0
    endloop
  endfacet
  facet normal -0 0 1
    outer loop
      vertex 1.5 -5.19615 0
      vertex 6.5 -13.8564 0
      vertex 2.51478 -4.45887 0
    endloop
  endfacet
  facet normal 0 0 1
    outer loop
      vertex 6.5 -13.8564 0
      vertex 1.5 -5.19615 0
      vertex 3.44427 -15.2169 0
    endloop
  endfacet
  facet normal -0 0 1
    outer loop
      vertex 0.354101 -5.70634 0
      vertex 3.44427 -15.2169 0
      vertex 1.5 -5.19615 0
    endloop
  endfacet
  facet normal 0 0 1
    outer loop
      vertex 0.354101 -5.70634 0
      vertex 0.172455 -15.9123 0
      vertex 3.44427 -15.2169 0
    endloop
  endfacet
  facet normal -0 0 1
    outer loop
      vertex -0.872829 -5.96713 0
      vertex 0.172455 -15.9123 0
      vertex 0.354101 -5.70634 0
    endloop
  endfacet
  facet normal -0 0 1
    outer loop
      vertex -2.12717 -5.96713 0
      vertex 0.172455 -15.9123 0
      vertex -0.872829 -5.96713 0
    endloop
  endfacet
  facet normal 0 0 1
    outer loop
      vertex -2.12717 -5.96713 0
      vertex -3.17245 -15.9123 0
      vertex 0.172455 -15.9123 0
    endloop
  endfacet
  facet normal 0 0 1
    outer loop
      vertex -3.3541 -5.70634 0
      vertex -3.17245 -15.9123 0
      vertex -2.12717 -5.96713 0
    endloop
  endfacet
  facet normal 0 0 1
    outer loop
      vertex -6.44427 -15.2169 0
      vertex -3.3541 -5.70634 0
      vertex -4.5 -5.19615 0
    endloop
  endfacet
  facet normal 0 0 1
    outer loop
      vertex -9.5 -13.8564 0
      vertex -4.5 -5.19615 0
      vertex -5.51478 -4.45887 0
    endloop
  endfacet
  facet normal 0 0 1
    outer loop
      vertex -12.2061 -11.8903 0
      vertex -5.51478 -4.45887 0
      vertex -6.3541 -3.52671 0
    endloop
  endfacet
  facet normal 0 0 1
    outer loop
      vertex -3.3541 -5.70634 0
      vertex -6.44427 -15.2169 0
      vertex -3.17245 -15.9123 0
    endloop
  endfacet
  facet normal 0 0 1
    outer loop
      vertex -14.4443 -9.40456 0
      vertex -6.3541 -3.52671 0
      vertex -6.98127 -2.44042 0
    endloop
  endfacet
  facet normal 0 0 1
    outer loop
      vertex -16.1167 -6.50779 0
      vertex -6.98127 -2.44042 0
      vertex -7.36889 -1.24747 0
    endloop
  endfacet
  facet normal 0 0 1
    outer loop
      vertex -17.1504 -3.32659 0
      vertex -7.36889 -1.24747 0
      vertex -7.5 0 0
    endloop
  endfacet
  facet normal -0 0 1
    outer loop
      vertex -16.1167 6.50779 0
      vertex -6.98127 2.44042 0
      vertex -14.4443 9.40456 0
    endloop
  endfacet
  facet normal 0 0 1
    outer loop
      vertex -4.5 -5.19615 0
      vertex -9.5 -13.8564 0
      vertex -6.44427 -15.2169 0
    endloop
  endfacet
  facet normal 0 0 1
    outer loop
      vertex -6.98127 2.44042 0
      vertex -16.1167 6.50779 0
      vertex -7.36889 1.24747 0
    endloop
  endfacet
  facet normal 0 0 1
    outer loop
      vertex -5.51478 -4.45887 0
      vertex -12.2061 -11.8903 0
      vertex -9.5 -13.8564 0
    endloop
  endfacet
  facet normal -0 0 1
    outer loop
      vertex -17.1504 3.32659 0
      vertex -7.36889 1.24747 0
      vertex -16.1167 6.50779 0
    endloop
  endfacet
  facet normal 0 0 1
    outer loop
      vertex -6.3541 -3.52671 0
      vertex -14.4443 -9.40456 0
      vertex -12.2061 -11.8903 0
    endloop
  endfacet
  facet normal 0 0 1
    outer loop
      vertex -7.36889 1.24747 0
      vertex -17.1504 3.32659 0
      vertex -7.5 0 0
    endloop
  endfacet
  facet normal 0 0 1
    outer loop
      vertex -6.98127 -2.44042 0
      vertex -16.1167 -6.50779 0
      vertex -14.4443 -9.40456 0
    endloop
  endfacet
  facet normal 0 0 1
    outer loop
      vertex -17.5 0 0
      vertex -7.5 0 0
      vertex -17.1504 3.32659 0
    endloop
  endfacet
  facet normal 0 0 1
    outer loop
      vertex -7.36889 -1.24747 0
      vertex -17.1504 -3.32659 0
      vertex -16.1167 -6.50779 0
    endloop
  endfacet
  facet normal 0 0 1
    outer loop
      vertex -7.5 0 0
      vertex -17.5 0 0
      vertex -17.1504 -3.32659 0
    endloop
  endfacet
  facet normal -0.207912 0.978148 0
    outer loop
      vertex -3.17245 15.9123 -4
      vertex -6.44427 15.2169 0
      vertex -3.17245 15.9123 0
    endloop
  endfacet
  facet normal -0.207912 0.978148 0
    outer loop
      vertex -6.44427 15.2169 0
      vertex -3.17245 15.9123 -4
      vertex -6.44427 15.2169 -4
    endloop
  endfacet
  facet normal 0.994522 -0.104529 0
    outer loop
      vertex 14.1504 -3.32659 0
      vertex 14.5 0 -4
      vertex 14.5 0 0
    endloop
  endfacet
  facet normal 0.994522 -0.104529 0
    outer loop
      vertex 14.5 0 -4
      vertex 14.1504 -3.32659 0
      vertex 14.1504 -3.32659 -4
    endloop
  endfacet
  facet normal 0 0 -1
    outer loop
      vertex 14.1504 -3.32659 -4
      vertex 14.1504 3.32659 -4
      vertex 14.5 0 -4
    endloop
  endfacet
  facet normal 0 0 -1
    outer loop
      vertex 13.1167 -6.50779 -4
      vertex 14.1504 3.32659 -4
      vertex 14.1504 -3.32659 -4
    endloop
  endfacet
  facet normal 0 0 -1
    outer loop
      vertex 13.1167 -6.50779 -4
      vertex 13.1167 6.50779 -4
      vertex 14.1504 3.32659 -4
    endloop
  endfacet
  facet normal 0 0 -1
    outer loop
      vertex 11.4443 -9.40456 -4
      vertex 13.1167 6.50779 -4
      vertex 13.1167 -6.50779 -4
    endloop
  endfacet
  facet normal 0 0 -1
    outer loop
      vertex 11.4443 -9.40456 -4
      vertex 11.4443 9.40456 -4
      vertex 13.1167 6.50779 -4
    endloop
  endfacet
  facet normal 0 0 -1
    outer loop
      vertex 9.20609 -11.8903 -4
      vertex 11.4443 9.40456 -4
      vertex 11.4443 -9.40456 -4
    endloop
  endfacet
  facet normal 0 0 -1
    outer loop
      vertex 9.20609 -11.8903 -4
      vertex 9.20609 11.8903 -4
      vertex 11.4443 9.40456 -4
    endloop
  endfacet
  facet normal 0 0 -1
    outer loop
      vertex 6.5 -13.8564 -4
      vertex 9.20609 11.8903 -4
      vertex 9.20609 -11.8903 -4
    endloop
  endfacet
  facet normal 0 0 -1
    outer loop
      vertex 6.5 -13.8564 -4
      vertex 6.5 13.8564 -4
      vertex 9.20609 11.8903 -4
    endloop
  endfacet
  facet normal 0 0 -1
    outer loop
      vertex 3.44427 -15.2169 -4
      vertex 6.5 13.8564 -4
      vertex 6.5 -13.8564 -4
    endloop
  endfacet
  facet normal 0 0 -1
    outer loop
      vertex 3.44427 -15.2169 -4
      vertex 3.44427 15.2169 -4
      vertex 6.5 13.8564 -4
    endloop
  endfacet
  facet normal 0 0 -1
    outer loop
      vertex 0.172455 -15.9123 -4
      vertex 3.44427 15.2169 -4
      vertex 3.44427 -15.2169 -4
    endloop
  endfacet
  facet normal 0 0 -1
    outer loop
      vertex 0.172455 -15.9123 -4
      vertex 0.172455 15.9123 -4
      vertex 3.44427 15.2169 -4
    endloop
  endfacet
  facet normal 0 0 -1
    outer loop
      vertex -3.17245 -15.9123 -4
      vertex 0.172455 15.9123 -4
      vertex 0.172455 -15.9123 -4
    endloop
  endfacet
  facet normal 0 0 -1
    outer loop
      vertex -3.17245 -15.9123 -4
      vertex -3.17245 15.9123 -4
      vertex 0.172455 15.9123 -4
    endloop
  endfacet
  facet normal 0 0 -1
    outer loop
      vertex -6.44427 -15.2169 -4
      vertex -3.17245 15.9123 -4
      vertex -3.17245 -15.9123 -4
    endloop
  endfacet
  facet normal 0 0 -1
    outer loop
      vertex -6.44427 -15.2169 -4
      vertex -6.44427 15.2169 -4
      vertex -3.17245 15.9123 -4
    endloop
  endfacet
  facet normal 0 0 -1
    outer loop
      vertex -6.44427 -15.2169 -4
      vertex -9.5 13.8564 -4
      vertex -6.44427 15.2169 -4
    endloop
  endfacet
  facet normal 0 0 -1
    outer loop
      vertex -9.5 -13.8564 -4
      vertex -9.5 13.8564 -4
      vertex -6.44427 -15.2169 -4
    endloop
  endfacet
  facet normal 0 0 -1
    outer loop
      vertex -12.2061 -11.8903 -4
      vertex -9.5 13.8564 -4
      vertex -9.5 -13.8564 -4
    endloop
  endfacet
  facet normal 0 0 -1
    outer loop
      vertex -12.2061 -11.8903 -4
      vertex -12.2061 11.8903 -4
      vertex -9.5 13.8564 -4
    endloop
  endfacet
  facet normal 0 0 -1
    outer loop
      vertex -14.4443 -9.40456 -4
      vertex -12.2061 11.8903 -4
      vertex -12.2061 -11.8903 -4
    endloop
  endfacet
  facet normal 0 0 -1
    outer loop
      vertex -14.4443 -9.40456 -4
      vertex -14.4443 9.40456 -4
      vertex -12.2061 11.8903 -4
    endloop
  endfacet
  facet normal 0 0 -1
    outer loop
      vertex -16.1167 -6.50779 -4
      vertex -14.4443 9.40456 -4
      vertex -14.4443 -9.40456 -4
    endloop
  endfacet
  facet normal 0 0 -1
    outer loop
      vertex -16.1167 -6.50779 -4
      vertex -16.1167 6.50779 -4
      vertex -14.4443 9.40456 -4
    endloop
  endfacet
  facet normal 0 0 -1
    outer loop
      vertex -17.1504 -3.32659 -4
      vertex -16.1167 6.50779 -4
      vertex -16.1167 -6.50779 -4
    endloop
  endfacet
  facet normal 0 0 -1
    outer loop
      vertex -17.1504 -3.32659 -4
      vertex -17.1504 3.32659 -4
      vertex -16.1167 6.50779 -4
    endloop
  endfacet
  facet normal 0 -0 -1
    outer loop
      vertex -17.1504 3.32659 -4
      vertex -17.1504 -3.32659 -4
      vertex -17.5 0 -4
    endloop
  endfacet
  facet normal 0.866025 -0.5 0
    outer loop
      vertex 11.4443 -9.40456 0
      vertex 13.1167 -6.50779 -4
      vertex 13.1167 -6.50779 0
    endloop
  endfacet
  facet normal 0.866025 -0.5 0
    outer loop
      vertex 13.1167 -6.50779 -4
      vertex 11.4443 -9.40456 0
      vertex 11.4443 -9.40456 -4
    endloop
  endfacet
  facet normal -0.866026 -0.5 0
    outer loop
      vertex -14.4443 -9.40456 -4
      vertex -16.1167 -6.50779 0
      vertex -16.1167 -6.50779 -4
    endloop
  endfacet
  facet normal -0.866026 -0.5 0
    outer loop
      vertex -16.1167 -6.50779 0
      vertex -14.4443 -9.40456 -4
      vertex -14.4443 -9.40456 0
    endloop
  endfacet
  facet normal -0.743145 -0.669131 0
    outer loop
      vertex -12.2061 -11.8903 -4
      vertex -14.4443 -9.40456 0
      vertex -14.4443 -9.40456 -4
    endloop
  endfacet
  facet normal -0.743145 -0.669131 0
    outer loop
      vertex -14.4443 -9.40456 0
      vertex -12.2061 -11.8903 -4
      vertex -12.2061 -11.8903 0
    endloop
  endfacet
  facet normal 0.587785 -0.809017 0
    outer loop
      vertex 6.5 -13.8564 -4
      vertex 9.20609 -11.8903 0
      vertex 6.5 -13.8564 0
    endloop
  endfacet
  facet normal 0.587785 -0.809017 0
    outer loop
      vertex 9.20609 -11.8903 0
      vertex 6.5 -13.8564 -4
      vertex 9.20609 -11.8903 -4
    endloop
  endfacet
  facet normal -0.207912 -0.978148 0
    outer loop
      vertex -6.44427 -15.2169 -4
      vertex -3.17245 -15.9123 0
      vertex -6.44427 -15.2169 0
    endloop
  endfacet
  facet normal -0.207912 -0.978148 -0
    outer loop
      vertex -3.17245 -15.9123 0
      vertex -6.44427 -15.2169 -4
      vertex -3.17245 -15.9123 -4
    endloop
  endfacet
  facet normal -0.951057 -0.309017 0
    outer loop
      vertex -16.1167 -6.50779 -4
      vertex -17.1504 -3.32659 0
      vertex -17.1504 -3.32659 -4
    endloop
  endfacet
  facet normal -0.951057 -0.309017 0
    outer loop
      vertex -17.1504 -3.32659 0
      vertex -16.1167 -6.50779 -4
      vertex -16.1167 -6.50779 0
    endloop
  endfacet
  facet normal -0.994522 -0.104529 0
    outer loop
      vertex -17.1504 -3.32659 -4
      vertex -17.5 0 0
      vertex -17.5 0 -4
    endloop
  endfacet
  facet normal -0.994522 -0.104529 0
    outer loop
      vertex -17.5 0 0
      vertex -17.1504 -3.32659 -4
      vertex -17.1504 -3.32659 0
    endloop
  endfacet
  facet normal 0.406736 -0.913546 0
    outer loop
      vertex 3.44427 -15.2169 -4
      vertex 6.5 -13.8564 0
      vertex 3.44427 -15.2169 0
    endloop
  endfacet
  facet normal 0.406736 -0.913546 0
    outer loop
      vertex 6.5 -13.8564 0
      vertex 3.44427 -15.2169 -4
      vertex 6.5 -13.8564 -4
    endloop
  endfacet
  facet normal 0.207912 -0.978148 0
    outer loop
      vertex 0.172455 -15.9123 -4
      vertex 3.44427 -15.2169 0
      vertex 0.172455 -15.9123 0
    endloop
  endfacet
  facet normal 0.207912 -0.978148 0
    outer loop
      vertex 3.44427 -15.2169 0
      vertex 0.172455 -15.9123 -4
      vertex 3.44427 -15.2169 -4
    endloop
  endfacet
  facet normal 0.743145 -0.669131 0
    outer loop
      vertex 9.20609 -11.8903 0
      vertex 11.4443 -9.40456 -4
      vertex 11.4443 -9.40456 0
    endloop
  endfacet
  facet normal 0.743145 -0.669131 0
    outer loop
      vertex 11.4443 -9.40456 -4
      vertex 9.20609 -11.8903 0
      vertex 9.20609 -11.8903 -4
    endloop
  endfacet
  facet normal -0.406736 -0.913546 0
    outer loop
      vertex -9.5 -13.8564 -4
      vertex -6.44427 -15.2169 0
      vertex -9.5 -13.8564 0
    endloop
  endfacet
  facet normal -0.406736 -0.913546 -0
    outer loop
      vertex -6.44427 -15.2169 0
      vertex -9.5 -13.8564 -4
      vertex -6.44427 -15.2169 -4
    endloop
  endfacet
  facet normal -0.587785 -0.809017 0
    outer loop
      vertex -12.2061 -11.8903 -4
      vertex -9.5 -13.8564 0
      vertex -12.2061 -11.8903 0
    endloop
  endfacet
  facet normal -0.587785 -0.809017 -0
    outer loop
      vertex -9.5 -13.8564 0
      vertex -12.2061 -11.8903 -4
      vertex -9.5 -13.8564 -4
    endloop
  endfacet
  facet normal 0.994522 0.104529 0
    outer loop
      vertex 4.5 0 6
      vertex 4.36889 1.24747 0
      vertex 4.36889 1.24747 6
    endloop
  endfacet
  facet normal 0.994522 0.104529 0
    outer loop
      vertex 4.36889 1.24747 0
      vertex 4.5 0 6
      vertex 4.5 0 0
    endloop
  endfacet
  facet normal -0.994522 0.104529 0
    outer loop
      vertex -7.5 0 0
      vertex -7.36889 1.24747 6
      vertex -7.36889 1.24747 0
    endloop
  endfacet
  facet normal -0.994522 0.104529 0
    outer loop
      vertex -7.36889 1.24747 6
      vertex -7.5 0 0
      vertex -7.5 0 6
    endloop
  endfacet
  facet normal 0 1 -0
    outer loop
      vertex -0.872829 5.96713 0
      vertex -2.12717 5.96713 6
      vertex -0.872829 5.96713 6
    endloop
  endfacet
  facet normal 0 1 0
    outer loop
      vertex -2.12717 5.96713 6
      vertex -0.872829 5.96713 0
      vertex -2.12717 5.96713 0
    endloop
  endfacet
  facet normal 0.587786 0.809017 -0
    outer loop
      vertex 2.51478 4.45887 0
      vertex 1.5 5.19615 6
      vertex 2.51478 4.45887 6
    endloop
  endfacet
  facet normal 0.587786 0.809017 0
    outer loop
      vertex 1.5 5.19615 6
      vertex 2.51478 4.45887 0
      vertex 1.5 5.19615 0
    endloop
  endfacet
  facet normal 0.406737 0.913545 -0
    outer loop
      vertex 1.5 5.19615 0
      vertex 0.354101 5.70634 6
      vertex 1.5 5.19615 6
    endloop
  endfacet
  facet normal 0.406737 0.913545 0
    outer loop
      vertex 0.354101 5.70634 6
      vertex 1.5 5.19615 0
      vertex 0.354101 5.70634 0
    endloop
  endfacet
  facet normal -0.743145 0.669131 0
    outer loop
      vertex -6.3541 3.52671 0
      vertex -5.51478 4.45887 6
      vertex -5.51478 4.45887 0
    endloop
  endfacet
  facet normal -0.743145 0.669131 0
    outer loop
      vertex -5.51478 4.45887 6
      vertex -6.3541 3.52671 0
      vertex -6.3541 3.52671 6
    endloop
  endfacet
  facet normal -0.866025 0.5 0
    outer loop
      vertex -6.98127 2.44042 0
      vertex -6.3541 3.52671 6
      vertex -6.3541 3.52671 0
    endloop
  endfacet
  facet normal -0.866025 0.5 0
    outer loop
      vertex -6.3541 3.52671 6
      vertex -6.98127 2.44042 0
      vertex -6.98127 2.44042 6
    endloop
  endfacet
  facet normal -0.406737 0.913545 0
    outer loop
      vertex -3.3541 5.70634 0
      vertex -4.5 5.19615 6
      vertex -3.3541 5.70634 6
    endloop
  endfacet
  facet normal -0.406737 0.913545 0
    outer loop
      vertex -4.5 5.19615 6
      vertex -3.3541 5.70634 0
      vertex -4.5 5.19615 0
    endloop
  endfacet
  facet normal 0.866025 0.5 0
    outer loop
      vertex 3.98127 2.44042 6
      vertex 3.3541 3.52671 0
      vertex 3.3541 3.52671 6
    endloop
  endfacet
  facet normal 0.866025 0.5 0
    outer loop
      vertex 3.3541 3.52671 0
      vertex 3.98127 2.44042 6
      vertex 3.98127 2.44042 0
    endloop
  endfacet
  facet normal 0.951057 0.309017 0
    outer loop
      vertex 4.36889 1.24747 6
      vertex 3.98127 2.44042 0
      vertex 3.98127 2.44042 6
    endloop
  endfacet
  facet normal 0.951057 0.309017 0
    outer loop
      vertex 3.98127 2.44042 0
      vertex 4.36889 1.24747 6
      vertex 4.36889 1.24747 0
    endloop
  endfacet
  facet normal 0.743145 0.669131 0
    outer loop
      vertex 3.3541 3.52671 6
      vertex 2.51478 4.45887 0
      vertex 2.51478 4.45887 6
    endloop
  endfacet
  facet normal 0.743145 0.669131 0
    outer loop
      vertex 2.51478 4.45887 0
      vertex 3.3541 3.52671 6
      vertex 3.3541 3.52671 0
    endloop
  endfacet
  facet normal 0.207911 0.978148 -0
    outer loop
      vertex 0.354101 5.70634 0
      vertex -0.872829 5.96713 6
      vertex 0.354101 5.70634 6
    endloop
  endfacet
  facet normal 0.207911 0.978148 0
    outer loop
      vertex -0.872829 5.96713 6
      vertex 0.354101 5.70634 0
      vertex -0.872829 5.96713 0
    endloop
  endfacet
  facet normal -0.951057 0.309017 0
    outer loop
      vertex -7.36889 1.24747 0
      vertex -6.98127 2.44042 6
      vertex -6.98127 2.44042 0
    endloop
  endfacet
  facet normal -0.951057 0.309017 0
    outer loop
      vertex -6.98127 2.44042 6
      vertex -7.36889 1.24747 0
      vertex -7.36889 1.24747 6
    endloop
  endfacet
  facet normal 0 0 1
    outer loop
      vertex 2.5 0 6
      vertex 4.5 0 6
      vertex 4.36889 1.24747 6
    endloop
  endfacet
  facet normal 0 0 1
    outer loop
      vertex 2.38377 0.957262 6
      vertex 4.36889 1.24747 6
      vertex 3.98127 2.44042 6
    endloop
  endfacet
  facet normal 0 0 1
    outer loop
      vertex 4.5 0 6
      vertex 2.5 0 6
      vertex 4.36889 -1.24747 6
    endloop
  endfacet
  facet normal 0 0 1
    outer loop
      vertex 2.04182 1.85889 6
      vertex 3.98127 2.44042 6
      vertex 3.3541 3.52671 6
    endloop
  endfacet
  facet normal -0 0 1
    outer loop
      vertex 2.38377 -0.957262 6
      vertex 4.36889 -1.24747 6
      vertex 2.5 0 6
    endloop
  endfacet
  facet normal 0 0 1
    outer loop
      vertex 1.49404 2.65249 6
      vertex 3.3541 3.52671 6
      vertex 2.51478 4.45887 6
    endloop
  endfacet
  facet normal 0 0 1
    outer loop
      vertex 4.36889 -1.24747 6
      vertex 2.38377 -0.957262 6
      vertex 3.98127 -2.44042 6
    endloop
  endfacet
  facet normal -0 0 1
    outer loop
      vertex 2.04182 -1.85889 6
      vertex 3.98127 -2.44042 6
      vertex 2.38377 -0.957262 6
    endloop
  endfacet
  facet normal 0 0 1
    outer loop
      vertex 4.36889 1.24747 6
      vertex 2.38377 0.957262 6
      vertex 2.5 0 6
    endloop
  endfacet
  facet normal 0 0 1
    outer loop
      vertex 3.98127 2.44042 6
      vertex 2.04182 1.85889 6
      vertex 2.38377 0.957262 6
    endloop
  endfacet
  facet normal 0 0 1
    outer loop
      vertex 0.772259 3.29193 6
      vertex 2.51478 4.45887 6
      vertex 1.5 5.19615 6
    endloop
  endfacet
  facet normal 0 0 1
    outer loop
      vertex 3.3541 3.52671 6
      vertex 1.49404 2.65249 6
      vertex 2.04182 1.85889 6
    endloop
  endfacet
  facet normal 0 0 1
    outer loop
      vertex 2.51478 4.45887 6
      vertex 0.772259 3.29193 6
      vertex 1.49404 2.65249 6
    endloop
  endfacet
  facet normal 0 0 1
    outer loop
      vertex -0.0815811 3.74006 6
      vertex 1.5 5.19615 6
      vertex 0.354101 5.70634 6
    endloop
  endfacet
  facet normal 0 0 1
    outer loop
      vertex 1.5 5.19615 6
      vertex -0.0815811 3.74006 6
      vertex 0.772259 3.29193 6
    endloop
  endfacet
  facet normal 0 0 1
    outer loop
      vertex -1.01785 3.97083 6
      vertex 0.354101 5.70634 6
      vertex -0.872829 5.96713 6
    endloop
  endfacet
  facet normal 0 0 1
    outer loop
      vertex 0.354101 5.70634 6
      vertex -1.01785 3.97083 6
      vertex -0.0815811 3.74006 6
    endloop
  endfacet
  facet normal 0 0 1
    outer loop
      vertex -0.872829 5.96713 6
      vertex -1.98215 3.97083 6
      vertex -1.01785 3.97083 6
    endloop
  endfacet
  facet normal -0 0 1
    outer loop
      vertex -2.12717 5.96713 6
      vertex -1.98215 3.97083 6
      vertex -0.872829 5.96713 6
    endloop
  endfacet
  facet normal -0 0 1
    outer loop
      vertex -3.3541 5.70634 6
      vertex -1.98215 3.97083 6
      vertex -2.12717 5.96713 6
    endloop
  endfacet
  facet normal 0 0 1
    outer loop
      vertex -1.98215 3.97083 6
      vertex -3.3541 5.70634 6
      vertex -2.91842 3.74006 6
    endloop
  endfacet
  facet normal -0 0 1
    outer loop
      vertex -4.5 5.19615 6
      vertex -2.91842 3.74006 6
      vertex -3.3541 5.70634 6
    endloop
  endfacet
  facet normal 0 0 1
    outer loop
      vertex -2.91842 3.74006 6
      vertex -4.5 5.19615 6
      vertex -3.77226 3.29193 6
    endloop
  endfacet
  facet normal -0 0 1
    outer loop
      vertex -5.51478 4.45887 6
      vertex -3.77226 3.29193 6
      vertex -4.5 5.19615 6
    endloop
  endfacet
  facet normal 0 0 1
    outer loop
      vertex -3.77226 3.29193 6
      vertex -5.51478 4.45887 6
      vertex -4.49404 2.65249 6
    endloop
  endfacet
  facet normal -0 0 1
    outer loop
      vertex -6.3541 3.52671 6
      vertex -4.49404 2.65249 6
      vertex -5.51478 4.45887 6
    endloop
  endfacet
  facet normal -0 0 1
    outer loop
      vertex -6.98127 2.44042 6
      vertex -5.04182 1.85889 6
      vertex -6.3541 3.52671 6
    endloop
  endfacet
  facet normal 0 0 1
    outer loop
      vertex -4.49404 2.65249 6
      vertex -6.3541 3.52671 6
      vertex -5.04182 1.85889 6
    endloop
  endfacet
  facet normal 0 0 1
    outer loop
      vertex 3.98127 -2.44042 6
      vertex 2.04182 -1.85889 6
      vertex 3.3541 -3.52671 6
    endloop
  endfacet
  facet normal -0 0 1
    outer loop
      vertex 1.49404 -2.65249 6
      vertex 3.3541 -3.52671 6
      vertex 2.04182 -1.85889 6
    endloop
  endfacet
  facet normal 0 0 1
    outer loop
      vertex 3.3541 -3.52671 6
      vertex 1.49404 -2.65249 6
      vertex 2.51478 -4.45887 6
    endloop
  endfacet
  facet normal -0 0 1
    outer loop
      vertex 0.772259 -3.29193 6
      vertex 2.51478 -4.45887 6
      vertex 1.49404 -2.65249 6
    endloop
  endfacet
  facet normal 0 0 1
    outer loop
      vertex 2.51478 -4.45887 6
      vertex 0.772259 -3.29193 6
      vertex 1.5 -5.19615 6
    endloop
  endfacet
  facet normal -0 0 1
    outer loop
      vertex -0.0815811 -3.74006 6
      vertex 1.5 -5.19615 6
      vertex 0.772259 -3.29193 6
    endloop
  endfacet
  facet normal 0 0 1
    outer loop
      vertex 1.5 -5.19615 6
      vertex -0.0815811 -3.74006 6
      vertex 0.354101 -5.70634 6
    endloop
  endfacet
  facet normal -0 0 1
    outer loop
      vertex -1.01785 -3.97083 6
      vertex 0.354101 -5.70634 6
      vertex -0.0815811 -3.74006 6
    endloop
  endfacet
  facet normal 0 0 1
    outer loop
      vertex 0.354101 -5.70634 6
      vertex -1.01785 -3.97083 6
      vertex -0.872829 -5.96713 6
    endloop
  endfacet
  facet normal -0 0 1
    outer loop
      vertex -1.98215 -3.97083 6
      vertex -0.872829 -5.96713 6
      vertex -1.01785 -3.97083 6
    endloop
  endfacet
  facet normal 0 0 1
    outer loop
      vertex -1.98215 -3.97083 6
      vertex -2.12717 -5.96713 6
      vertex -0.872829 -5.96713 6
    endloop
  endfacet
  facet normal 0 0 1
    outer loop
      vertex -3.3541 -5.70634 6
      vertex -1.98215 -3.97083 6
      vertex -2.91842 -3.74006 6
    endloop
  endfacet
  facet normal 0 0 1
    outer loop
      vertex -1.98215 -3.97083 6
      vertex -3.3541 -5.70634 6
      vertex -2.12717 -5.96713 6
    endloop
  endfacet
  facet normal 0 0 1
    outer loop
      vertex -4.5 -5.19615 6
      vertex -2.91842 -3.74006 6
      vertex -3.77226 -3.29193 6
    endloop
  endfacet
  facet normal 0 0 1
    outer loop
      vertex -5.51478 -4.45887 6
      vertex -3.77226 -3.29193 6
      vertex -4.49404 -2.65249 6
    endloop
  endfacet
  facet normal 0 0 1
    outer loop
      vertex -2.91842 -3.74006 6
      vertex -4.5 -5.19615 6
      vertex -3.3541 -5.70634 6
    endloop
  endfacet
  facet normal 0 0 1
    outer loop
      vertex -6.3541 -3.52671 6
      vertex -4.49404 -2.65249 6
      vertex -5.04182 -1.85889 6
    endloop
  endfacet
  facet normal 0 0 1
    outer loop
      vertex -6.98127 -2.44042 6
      vertex -5.04182 -1.85889 6
      vertex -5.38377 -0.957262 6
    endloop
  endfacet
  facet normal 0 0 1
    outer loop
      vertex -3.77226 -3.29193 6
      vertex -5.51478 -4.45887 6
      vertex -4.5 -5.19615 6
    endloop
  endfacet
  facet normal 0 0 1
    outer loop
      vertex -7.36889 -1.24747 6
      vertex -5.38377 -0.957262 6
      vertex -5.5 0 6
    endloop
  endfacet
  facet normal 0 0 1
    outer loop
      vertex -5.04182 1.85889 6
      vertex -6.98127 2.44042 6
      vertex -5.38377 0.957262 6
    endloop
  endfacet
  facet normal -0 0 1
    outer loop
      vertex -7.36889 1.24747 6
      vertex -5.38377 0.957262 6
      vertex -6.98127 2.44042 6
    endloop
  endfacet
  facet normal 0 0 1
    outer loop
      vertex -4.49404 -2.65249 6
      vertex -6.3541 -3.52671 6
      vertex -5.51478 -4.45887 6
    endloop
  endfacet
  facet normal 0 0 1
    outer loop
      vertex -5.38377 0.957262 6
      vertex -7.36889 1.24747 6
      vertex -5.5 0 6
    endloop
  endfacet
  facet normal 0 0 1
    outer loop
      vertex -5.04182 -1.85889 6
      vertex -6.98127 -2.44042 6
      vertex -6.3541 -3.52671 6
    endloop
  endfacet
  facet normal 0 0 1
    outer loop
      vertex -7.5 0 6
      vertex -5.5 0 6
      vertex -7.36889 1.24747 6
    endloop
  endfacet
  facet normal 0 0 1
    outer loop
      vertex -5.38377 -0.957262 6
      vertex -7.36889 -1.24747 6
      vertex -6.98127 -2.44042 6
    endloop
  endfacet
  facet normal 0 0 1
    outer loop
      vertex -5.5 0 6
      vertex -7.5 0 6
      vertex -7.36889 -1.24747 6
    endloop
  endfacet
  facet normal -0.587785 0.809017 0
    outer loop
      vertex -4.5 5.19615 0
      vertex -5.51478 4.45887 6
      vertex -4.5 5.19615 6
    endloop
  endfacet
  facet normal -0.587785 0.809017 0
    outer loop
      vertex -5.51478 4.45887 6
      vertex -4.5 5.19615 0
      vertex -5.51478 4.45887 0
    endloop
  endfacet
  facet normal -0.207911 0.978148 0
    outer loop
      vertex -2.12717 5.96713 0
      vertex -3.3541 5.70634 6
      vertex -2.12717 5.96713 6
    endloop
  endfacet
  facet normal -0.207911 0.978148 0
    outer loop
      vertex -3.3541 5.70634 6
      vertex -2.12717 5.96713 0
      vertex -3.3541 5.70634 0
    endloop
  endfacet
  facet normal 0.994522 -0.104529 0
    outer loop
      vertex 4.36889 -1.24747 6
      vertex 4.5 0 0
      vertex 4.5 0 6
    endloop
  endfacet
  facet normal 0.994522 -0.104529 0
    outer loop
      vertex 4.5 0 0
      vertex 4.36889 -1.24747 6
      vertex 4.36889 -1.24747 0
    endloop
  endfacet
  facet normal -0.207911 -0.978148 0
    outer loop
      vertex -3.3541 -5.70634 0
      vertex -2.12717 -5.96713 6
      vertex -3.3541 -5.70634 6
    endloop
  endfacet
  facet normal -0.207911 -0.978148 -0
    outer loop
      vertex -2.12717 -5.96713 6
      vertex -3.3541 -5.70634 0
      vertex -2.12717 -5.96713 0
    endloop
  endfacet
  facet normal 0.207911 -0.978148 0
    outer loop
      vertex -0.872829 -5.96713 0
      vertex 0.354101 -5.70634 6
      vertex -0.872829 -5.96713 6
    endloop
  endfacet
  facet normal 0.207911 -0.978148 0
    outer loop
      vertex 0.354101 -5.70634 6
      vertex -0.872829 -5.96713 0
      vertex 0.354101 -5.70634 0
    endloop
  endfacet
  facet normal 0.743145 -0.669131 0
    outer loop
      vertex 2.51478 -4.45887 6
      vertex 3.3541 -3.52671 0
      vertex 3.3541 -3.52671 6
    endloop
  endfacet
  facet normal 0.743145 -0.669131 0
    outer loop
      vertex 3.3541 -3.52671 0
      vertex 2.51478 -4.45887 6
      vertex 2.51478 -4.45887 0
    endloop
  endfacet
  facet normal 0.951057 -0.309017 0
    outer loop
      vertex 3.98127 -2.44042 6
      vertex 4.36889 -1.24747 0
      vertex 4.36889 -1.24747 6
    endloop
  endfacet
  facet normal 0.951057 -0.309017 0
    outer loop
      vertex 4.36889 -1.24747 0
      vertex 3.98127 -2.44042 6
      vertex 3.98127 -2.44042 0
    endloop
  endfacet
  facet normal 0.866025 -0.5 0
    outer loop
      vertex 3.3541 -3.52671 6
      vertex 3.98127 -2.44042 0
      vertex 3.98127 -2.44042 6
    endloop
  endfacet
  facet normal 0.866025 -0.5 0
    outer loop
      vertex 3.98127 -2.44042 0
      vertex 3.3541 -3.52671 6
      vertex 3.3541 -3.52671 0
    endloop
  endfacet
  facet normal -0.866025 -0.5 0
    outer loop
      vertex -6.3541 -3.52671 0
      vertex -6.98127 -2.44042 6
      vertex -6.98127 -2.44042 0
    endloop
  endfacet
  facet normal -0.866025 -0.5 0
    outer loop
      vertex -6.98127 -2.44042 6
      vertex -6.3541 -3.52671 0
      vertex -6.3541 -3.52671 6
    endloop
  endfacet
  facet normal -0.994522 -0.104529 0
    outer loop
      vertex -7.36889 -1.24747 0
      vertex -7.5 0 6
      vertex -7.5 0 0
    endloop
  endfacet
  facet normal -0.994522 -0.104529 0
    outer loop
      vertex -7.5 0 6
      vertex -7.36889 -1.24747 0
      vertex -7.36889 -1.24747 6
    endloop
  endfacet
  facet normal -0.951057 -0.309017 0
    outer loop
      vertex -6.98127 -2.44042 0
      vertex -7.36889 -1.24747 6
      vertex -7.36889 -1.24747 0
    endloop
  endfacet
  facet normal -0.951057 -0.309017 0
    outer loop
      vertex -7.36889 -1.24747 6
      vertex -6.98127 -2.44042 0
      vertex -6.98127 -2.44042 6
    endloop
  endfacet
  facet normal 0.587786 -0.809017 0
    outer loop
      vertex 1.5 -5.19615 0
      vertex 2.51478 -4.45887 6
      vertex 1.5 -5.19615 6
    endloop
  endfacet
  facet normal 0.587786 -0.809017 0
    outer loop
      vertex 2.51478 -4.45887 6
      vertex 1.5 -5.19615 0
      vertex 2.51478 -4.45887 0
    endloop
  endfacet
  facet normal 0.406737 -0.913545 0
    outer loop
      vertex 0.354101 -5.70634 0
      vertex 1.5 -5.19615 6
      vertex 0.354101 -5.70634 6
    endloop
  endfacet
  facet normal 0.406737 -0.913545 0
    outer loop
      vertex 1.5 -5.19615 6
      vertex 0.354101 -5.70634 0
      vertex 1.5 -5.19615 0
    endloop
  endfacet
  facet normal 0 -1 0
    outer loop
      vertex -2.12717 -5.96713 0
      vertex -0.872829 -5.96713 6
      vertex -2.12717 -5.96713 6
    endloop
  endfacet
  facet normal 0 -1 -0
    outer loop
      vertex -0.872829 -5.96713 6
      vertex -2.12717 -5.96713 0
      vertex -0.872829 -5.96713 0
    endloop
  endfacet
  facet normal -0.406737 -0.913545 0
    outer loop
      vertex -4.5 -5.19615 0
      vertex -3.3541 -5.70634 6
      vertex -4.5 -5.19615 6
    endloop
  endfacet
  facet normal -0.406737 -0.913545 -0
    outer loop
      vertex -3.3541 -5.70634 6
      vertex -4.5 -5.19615 0
      vertex -3.3541 -5.70634 0
    endloop
  endfacet
  facet normal -0.743145 -0.669131 0
    outer loop
      vertex -5.51478 -4.45887 0
      vertex -6.3541 -3.52671 6
      vertex -6.3541 -3.52671 0
    endloop
  endfacet
  facet normal -0.743145 -0.669131 0
    outer loop
      vertex -6.3541 -3.52671 6
      vertex -5.51478 -4.45887 0
      vertex -5.51478 -4.45887 6
    endloop
  endfacet
  facet normal -0.587786 -0.809017 0
    outer loop
      vertex -5.51478 -4.45887 0
      vertex -4.5 -5.19615 6
      vertex -5.51478 -4.45887 6
    endloop
  endfacet
  facet normal -0.587786 -0.809017 -0
    outer loop
      vertex -4.5 -5.19615 6
      vertex -5.51478 -4.45887 0
      vertex -4.5 -5.19615 0
    endloop
  endfacet
  facet normal -0.859067 -0.10431 0.501122
    outer loop
      vertex 2.5 0 6
      vertex 2.38377 0.957262 6
      vertex -1 0 0
    endloop
  endfacet
  facet normal -0.859067 -0.104311 0.501122
    outer loop
      vertex -1 0 0
      vertex 2.38377 0.957262 6
      vertex -1.01453 0.119658 0
    endloop
  endfacet
  facet normal -0.859067 0.104311 0.501122
    outer loop
      vertex 2.38377 -0.957262 6
      vertex -1 0 0
      vertex -1.01453 -0.119658 0
    endloop
  endfacet
  facet normal 0.809141 0.306867 0.501122
    outer loop
      vertex -5.04182 -1.85889 6
      vertex -1.98547 -0.119658 0
      vertex -5.38377 -0.957262 6
    endloop
  endfacet
  facet normal 0.859067 0.10431 0.501122
    outer loop
      vertex -5.38377 -0.957262 6
      vertex -2 0 0
      vertex -5.5 0 6
    endloop
  endfacet
  facet normal -0.207098 0.84023 0.501122
    outer loop
      vertex -1.01785 -3.97083 6
      vertex -0.0815811 -3.74006 6
      vertex -1.43973 -0.496354 0
    endloop
  endfacet
  facet normal -0.859067 0.10431 0.501122
    outer loop
      vertex 2.38377 -0.957262 6
      vertex 2.5 0 6
      vertex -1 0 0
    endloop
  endfacet
  facet normal -0.712191 0.49159 0.501122
    outer loop
      vertex 1.49404 -2.65249 6
      vertex 2.04182 -1.85889 6
      vertex -1.12574 -0.331561 0
    endloop
  endfacet
  facet normal 0.573848 0.647746 0.501123
    outer loop
      vertex -1.78403 -0.411491 0
      vertex -1.87426 -0.331561 0
      vertex -3.77226 -3.29193 6
    endloop
  endfacet
  facet normal 0.40216 0.766253 0.501122
    outer loop
      vertex -2.91842 -3.74006 6
      vertex -1.6773 -0.467507 0
      vertex -3.77226 -3.29193 6
    endloop
  endfacet
  facet normal 0.2071 -0.84023 0.501122
    outer loop
      vertex -1.6773 0.467507 0
      vertex -1.56027 0.496354 0
      vertex -2.91842 3.74006 6
    endloop
  endfacet
  facet normal 0.859067 -0.10431 0.501122
    outer loop
      vertex -2 0 0
      vertex -5.38377 0.957262 6
      vertex -5.5 0 6
    endloop
  endfacet
  facet normal 0.712191 -0.49159 0.501122
    outer loop
      vertex -1.87426 0.331561 0
      vertex -4.49404 2.65249 6
      vertex -5.04182 1.85889 6
    endloop
  endfacet
  facet normal -0.809141 0.306867 0.501122
    outer loop
      vertex 2.04182 -1.85889 6
      vertex 2.38377 -0.957262 6
      vertex -1.01453 -0.119658 0
    endloop
  endfacet
  facet normal -0.40216 0.766253 0.501122
    outer loop
      vertex -0.0815811 -3.74006 6
      vertex 0.772259 -3.29193 6
      vertex -1.3227 -0.467507 0
    endloop
  endfacet
  facet normal -0.2071 0.84023 0.501122
    outer loop
      vertex -0.0815811 -3.74006 6
      vertex -1.3227 -0.467507 0
      vertex -1.43973 -0.496354 0
    endloop
  endfacet
  facet normal -0.573848 0.647746 0.501123
    outer loop
      vertex 0.772259 -3.29193 6
      vertex -1.12574 -0.331561 0
      vertex -1.21597 -0.411491 0
    endloop
  endfacet
  facet normal -0.573851 0.647744 0.501122
    outer loop
      vertex 0.772259 -3.29193 6
      vertex 1.49404 -2.65249 6
      vertex -1.12574 -0.331561 0
    endloop
  endfacet
  facet normal 0.573851 0.647744 0.501122
    outer loop
      vertex -3.77226 -3.29193 6
      vertex -1.87426 -0.331561 0
      vertex -4.49404 -2.65249 6
    endloop
  endfacet
  facet normal 0.712191 0.49159 0.501122
    outer loop
      vertex -4.49404 -2.65249 6
      vertex -1.87426 -0.331561 0
      vertex -5.04182 -1.85889 6
    endloop
  endfacet
  facet normal 0.40216 0.766253 0.501122
    outer loop
      vertex -1.6773 -0.467507 0
      vertex -1.78403 -0.411491 0
      vertex -3.77226 -3.29193 6
    endloop
  endfacet
  facet normal 0.207098 0.84023 0.501122
    outer loop
      vertex -1.98215 -3.97083 6
      vertex -1.56027 -0.496354 0
      vertex -2.91842 -3.74006 6
    endloop
  endfacet
  facet normal 0 0.865376 0.501122
    outer loop
      vertex -1.43973 -0.496354 0
      vertex -1.98215 -3.97083 6
      vertex -1.01785 -3.97083 6
    endloop
  endfacet
  facet normal 0 0.865376 0.501122
    outer loop
      vertex -1.98215 -3.97083 6
      vertex -1.43973 -0.496354 0
      vertex -1.56027 -0.496354 0
    endloop
  endfacet
  facet normal -0.573848 -0.647746 0.501123
    outer loop
      vertex -1.12574 0.331561 0
      vertex 0.772259 3.29193 6
      vertex -1.21597 0.411491 0
    endloop
  endfacet
  facet normal 0.40216 -0.766253 0.501122
    outer loop
      vertex -1.6773 0.467507 0
      vertex -2.91842 3.74006 6
      vertex -3.77226 3.29193 6
    endloop
  endfacet
  facet normal 0.809141 -0.306867 0.501122
    outer loop
      vertex -1.98547 0.119658 0
      vertex -5.04182 1.85889 6
      vertex -5.38377 0.957262 6
    endloop
  endfacet
  facet normal 0.859067 -0.104311 0.501122
    outer loop
      vertex -2 0 0
      vertex -1.98547 0.119658 0
      vertex -5.38377 0.957262 6
    endloop
  endfacet
  facet normal -0.809139 0.306873 0.501123
    outer loop
      vertex 2.04182 -1.85889 6
      vertex -1.01453 -0.119658 0
      vertex -1.05727 -0.232361 0
    endloop
  endfacet
  facet normal -0.712194 0.491584 0.501123
    outer loop
      vertex 2.04182 -1.85889 6
      vertex -1.05727 -0.232361 0
      vertex -1.12574 -0.331561 0
    endloop
  endfacet
  facet normal -0.40216 0.766253 0.501122
    outer loop
      vertex 0.772259 -3.29193 6
      vertex -1.21597 -0.411491 0
      vertex -1.3227 -0.467507 0
    endloop
  endfacet
  facet normal 0.712194 0.491584 0.501123
    outer loop
      vertex -1.87426 -0.331561 0
      vertex -1.94273 -0.232361 0
      vertex -5.04182 -1.85889 6
    endloop
  endfacet
  facet normal 0.809139 0.306873 0.501123
    outer loop
      vertex -1.94273 -0.232361 0
      vertex -1.98547 -0.119658 0
      vertex -5.04182 -1.85889 6
    endloop
  endfacet
  facet normal 0.2071 0.84023 0.501122
    outer loop
      vertex -1.56027 -0.496354 0
      vertex -1.6773 -0.467507 0
      vertex -2.91842 -3.74006 6
    endloop
  endfacet
  facet normal -0.40216 -0.766253 0.501122
    outer loop
      vertex 0.772259 3.29193 6
      vertex -0.0815811 3.74006 6
      vertex -1.3227 0.467507 0
    endloop
  endfacet
  facet normal -0.207098 -0.84023 0.501122
    outer loop
      vertex -0.0815811 3.74006 6
      vertex -1.01785 3.97083 6
      vertex -1.43973 0.496354 0
    endloop
  endfacet
  facet normal 0 -0.865376 0.501122
    outer loop
      vertex -1.56027 0.496354 0
      vertex -1.01785 3.97083 6
      vertex -1.98215 3.97083 6
    endloop
  endfacet
  facet normal 0 -0.865376 0.501122
    outer loop
      vertex -1.01785 3.97083 6
      vertex -1.56027 0.496354 0
      vertex -1.43973 0.496354 0
    endloop
  endfacet
  facet normal 0.207098 -0.84023 0.501122
    outer loop
      vertex -1.56027 0.496354 0
      vertex -1.98215 3.97083 6
      vertex -2.91842 3.74006 6
    endloop
  endfacet
  facet normal -0.573851 -0.647744 0.501122
    outer loop
      vertex 1.49404 2.65249 6
      vertex 0.772259 3.29193 6
      vertex -1.12574 0.331561 0
    endloop
  endfacet
  facet normal -0.712191 -0.49159 0.501122
    outer loop
      vertex 2.04182 1.85889 6
      vertex 1.49404 2.65249 6
      vertex -1.12574 0.331561 0
    endloop
  endfacet
  facet normal -0.809141 -0.306867 0.501122
    outer loop
      vertex 2.38377 0.957262 6
      vertex 2.04182 1.85889 6
      vertex -1.01453 0.119658 0
    endloop
  endfacet
  facet normal 0.712194 -0.491584 0.501123
    outer loop
      vertex -1.94273 0.232361 0
      vertex -1.87426 0.331561 0
      vertex -5.04182 1.85889 6
    endloop
  endfacet
  facet normal 0.573851 -0.647744 0.501122
    outer loop
      vertex -1.87426 0.331561 0
      vertex -3.77226 3.29193 6
      vertex -4.49404 2.65249 6
    endloop
  endfacet
  facet normal 0.40216 -0.766253 0.501122
    outer loop
      vertex -1.78403 0.411491 0
      vertex -1.6773 0.467507 0
      vertex -3.77226 3.29193 6
    endloop
  endfacet
  facet normal -0.2071 -0.84023 0.501122
    outer loop
      vertex -1.3227 0.467507 0
      vertex -0.0815811 3.74006 6
      vertex -1.43973 0.496354 0
    endloop
  endfacet
  facet normal -0.712194 -0.491584 0.501123
    outer loop
      vertex -1.05727 0.232361 0
      vertex 2.04182 1.85889 6
      vertex -1.12574 0.331561 0
    endloop
  endfacet
  facet normal -0.809139 -0.306873 0.501123
    outer loop
      vertex -1.01453 0.119658 0
      vertex 2.04182 1.85889 6
      vertex -1.05727 0.232361 0
    endloop
  endfacet
  facet normal 0 0 1
    outer loop
      vertex -1.01453 0.119658 0
      vertex -1.01453 -0.119658 0
      vertex -1 0 0
    endloop
  endfacet
  facet normal 0 0 1
    outer loop
      vertex -1.05727 0.232361 0
      vertex -1.01453 -0.119658 0
      vertex -1.01453 0.119658 0
    endloop
  endfacet
  facet normal 0 0 1
    outer loop
      vertex -1.05727 0.232361 0
      vertex -1.05727 -0.232361 0
      vertex -1.01453 -0.119658 0
    endloop
  endfacet
  facet normal 0 0 1
    outer loop
      vertex -1.12574 0.331561 0
      vertex -1.05727 -0.232361 0
      vertex -1.05727 0.232361 0
    endloop
  endfacet
  facet normal 0 0 1
    outer loop
      vertex -1.12574 0.331561 0
      vertex -1.12574 -0.331561 0
      vertex -1.05727 -0.232361 0
    endloop
  endfacet
  facet normal 0 0 1
    outer loop
      vertex -1.21597 0.411491 0
      vertex -1.12574 -0.331561 0
      vertex -1.12574 0.331561 0
    endloop
  endfacet
  facet normal 0 0 1
    outer loop
      vertex -1.21597 0.411491 0
      vertex -1.21597 -0.411491 0
      vertex -1.12574 -0.331561 0
    endloop
  endfacet
  facet normal 0 0 1
    outer loop
      vertex -1.3227 0.467507 0
      vertex -1.21597 -0.411491 0
      vertex -1.21597 0.411491 0
    endloop
  endfacet
  facet normal 0 0 1
    outer loop
      vertex -1.3227 0.467507 0
      vertex -1.3227 -0.467507 0
      vertex -1.21597 -0.411491 0
    endloop
  endfacet
  facet normal 0 0 1
    outer loop
      vertex -1.43973 0.496354 0
      vertex -1.3227 -0.467507 0
      vertex -1.3227 0.467507 0
    endloop
  endfacet
  facet normal 0 0 1
    outer loop
      vertex -1.43973 0.496354 0
      vertex -1.43973 -0.496354 0
      vertex -1.3227 -0.467507 0
    endloop
  endfacet
  facet normal -0 0 1
    outer loop
      vertex -1.56027 0.496354 0
      vertex -1.43973 -0.496354 0
      vertex -1.43973 0.496354 0
    endloop
  endfacet
  facet normal 0 0 1
    outer loop
      vertex -1.56027 0.496354 0
      vertex -1.56027 -0.496354 0
      vertex -1.43973 -0.496354 0
    endloop
  endfacet
  facet normal -0 0 1
    outer loop
      vertex -1.6773 0.467507 0
      vertex -1.56027 -0.496354 0
      vertex -1.56027 0.496354 0
    endloop
  endfacet
  facet normal 0 0 1
    outer loop
      vertex -1.6773 0.467507 0
      vertex -1.6773 -0.467507 0
      vertex -1.56027 -0.496354 0
    endloop
  endfacet
  facet normal -0 0 1
    outer loop
      vertex -1.78403 0.411491 0
      vertex -1.6773 -0.467507 0
      vertex -1.6773 0.467507 0
    endloop
  endfacet
  facet normal 0 0 1
    outer loop
      vertex -1.78403 0.411491 0
      vertex -1.78403 -0.411491 0
      vertex -1.6773 -0.467507 0
    endloop
  endfacet
  facet normal -0 0 1
    outer loop
      vertex -1.87426 0.331561 0
      vertex -1.78403 -0.411491 0
      vertex -1.78403 0.411491 0
    endloop
  endfacet
  facet normal 0 0 1
    outer loop
      vertex -1.87426 0.331561 0
      vertex -1.87426 -0.331561 0
      vertex -1.78403 -0.411491 0
    endloop
  endfacet
  facet normal -0 0 1
    outer loop
      vertex -1.94273 0.232361 0
      vertex -1.87426 -0.331561 0
      vertex -1.87426 0.331561 0
    endloop
  endfacet
  facet normal 0 0 1
    outer loop
      vertex -1.94273 0.232361 0
      vertex -1.94273 -0.232361 0
      vertex -1.87426 -0.331561 0
    endloop
  endfacet
  facet normal -0 0 1
    outer loop
      vertex -1.98547 0.119658 0
      vertex -1.94273 -0.232361 0
      vertex -1.94273 0.232361 0
    endloop
  endfacet
  facet normal 0 0 1
    outer loop
      vertex -1.98547 0.119658 0
      vertex -1.98547 -0.119658 0
      vertex -1.94273 -0.232361 0
    endloop
  endfacet
  facet normal 0 -0 1
    outer loop
      vertex -1.98547 -0.119658 0
      vertex -1.98547 0.119658 0
      vertex -2 0 0
    endloop
  endfacet
  facet normal 0.859067 0.104311 0.501122
    outer loop
      vertex -1.98547 -0.119658 0
      vertex -2 0 0
      vertex -5.38377 -0.957262 6
    endloop
  endfacet
  facet normal 0.809139 -0.306873 0.501123
    outer loop
      vertex -1.98547 0.119658 0
      vertex -1.94273 0.232361 0
      vertex -5.04182 1.85889 6
    endloop
  endfacet
  facet normal 0.573848 -0.647746 0.501123
    outer loop
      vertex -1.87426 0.331561 0
      vertex -1.78403 0.411491 0
      vertex -3.77226 3.29193 6
    endloop
  endfacet
  facet normal -0.40216 -0.766253 0.501122
    outer loop
      vertex -1.21597 0.411491 0
      vertex 0.772259 3.29193 6
      vertex -1.3227 0.467507 0
    endloop
  endfacet
endsolid OpenSCAD_Model
